{
	"asset":{
		"generator":"Khronos glTF Blender I/O v4.0.44",
		"version":"2.0"
	},
	"extensionsUsed":[
		"KHR_lights_punctual",
		"KHR_materials_specular",
		"KHR_materials_ior"
	],
	"extensionsRequired":[
		"KHR_lights_punctual"
	],
	"extensions":{
		"KHR_lights_punctual":{
			"lights":[
				{
					"color":[
						1,
						1,
						1
					],
					"intensity":32610847.839529358,
					"type":"point",
					"name":"Light"
				}
			]
		}
	},
	"scene":0,
	"scenes":[
		{
			"extras":{
				"pmc_sceneprops":{}
			},
			"name":"Scene",
			"nodes":[
				0,
				1,
				2,
				3,
				4,
				5
			]
		}
	],
	"nodes":[
		{
			"extensions":{
				"KHR_lights_punctual":{
					"light":0
				}
			},
			"name":"Light",
			"rotation":[
				-0.28416627645492554,
				0.7269423007965088,
				0.34203392267227173,
				0.5232754945755005
			],
			"translation":[
				61.618160247802734,
				217.23614501953125,
				-26.221698760986328
			]
		},
		{
			"camera":0,
			"name":"Camera",
			"rotation":[
				-0.05346575751900673,
				0.7025025486946106,
				0.0398101881146431,
				0.7085525989532471
			],
			"translation":[
				15.714970588684082,
				5.059192657470703,
				2.7565884590148926
			]
		},
		{
			"mesh":0,
			"name":"Plane",
			"scale":[
				100,
				100,
				100
			]
		},
		{
			"mesh":1,
			"name":"Portal arch",
			"rotation":[
				0.4990866184234619,
				-0.5009118318557739,
				0.5009117722511292,
				0.4990866482257843
			],
			"scale":[
				2.6854074001312256,
				2.6854074001312256,
				2.6854071617126465
			],
			"translation":[
				-12.000001907348633,
				2.1245779991149902,
				-0.01261837687343359
			]
		},
		{
			"mesh":2,
			"name":"Portal prehod",
			"rotation":[
				0.4990866184234619,
				-0.5009118318557739,
				0.5009117722511292,
				0.4990866482257843
			],
			"scale":[
				2.6854074001312256,
				2.6854074001312256,
				2.6854071617126465
			],
			"translation":[
				-12.02849006652832,
				1.8723783493041992,
				-0.012989898212254047
			]
		},
		{
			"mesh":3,
			"name":"Stone dude",
			"rotation":[
				0.5,
				0.5,
				-0.5,
				0.5000000596046448
			],
			"scale":[
				0.3758411407470703,
				0.3758411407470703,
				0.3758411407470703
			],
			"translation":[
				5.329906463623047,
				1.9109984636306763,
				-10.022406578063965
			]
		}
	],
	"cameras":[
		{
			"name":"Camera",
			"perspective":{
				"aspectRatio":1.7777777777777777,
				"yfov":0.39959652046304894,
				"zfar":100,
				"znear":0.10000000149011612
			},
			"type":"perspective"
		}
	],
	"materials":[
		{
			"alphaMode":"BLEND",
			"doubleSided":true,
			"name":"Material.008",
			"normalTexture":{
				"index":0
			},
			"pbrMetallicRoughness":{
				"baseColorTexture":{
					"index":1
				},
				"metallicRoughnessTexture":{
					"index":2
				}
			}
		},
		{
			"doubleSided":true,
			"name":"rock1",
			"pbrMetallicRoughness":{
				"baseColorTexture":{
					"index":3
				},
				"metallicFactor":0,
				"roughnessFactor":0.3999999761581421
			}
		},
		{
			"doubleSided":true,
			"name":"glass",
			"pbrMetallicRoughness":{
				"baseColorTexture":{
					"index":4
				},
				"metallicFactor":0,
				"roughnessFactor":0.3999999761581421
			}
		},
		{
			"alphaMode":"BLEND",
			"doubleSided":true,
			"name":"EYES.001",
			"pbrMetallicRoughness":{
				"baseColorTexture":{
					"index":5
				},
				"metallicFactor":0,
				"roughnessFactor":0.4307900071144104
			}
		},
		{
			"alphaMode":"BLEND",
			"doubleSided":true,
			"extensions":{
				"KHR_materials_specular":{
					"specularFactor":0.5181819796562195
				},
				"KHR_materials_ior":{
					"ior":1.4500000476837158
				}
			},
			"name":"STONE.001",
			"normalTexture":{
				"index":6,
				"scale":0
			},
			"pbrMetallicRoughness":{
				"baseColorTexture":{
					"index":7
				},
				"metallicFactor":0,
				"metallicRoughnessTexture":{
					"index":8
				}
			}
		}
	],
	"meshes":[
		{
			"name":"Mesh",
			"primitives":[
				{
					"attributes":{
						"POSITION":0,
						"NORMAL":1,
						"TEXCOORD_0":2,
						"TANGENT":3
					},
					"indices":4,
					"material":0
				}
			]
		},
		{
			"name":"Portal arch",
			"primitives":[
				{
					"attributes":{
						"POSITION":5,
						"NORMAL":6,
						"TEXCOORD_0":7,
						"TANGENT":8
					},
					"indices":9,
					"material":1
				}
			]
		},
		{
			"name":"Portal prehod",
			"primitives":[
				{
					"attributes":{
						"POSITION":10,
						"NORMAL":11,
						"TEXCOORD_0":12,
						"TANGENT":13
					},
					"indices":14,
					"material":2
				}
			]
		},
		{
			"name":"Mesh",
			"primitives":[
				{
					"attributes":{
						"POSITION":15,
						"NORMAL":16,
						"TEXCOORD_0":17,
						"TANGENT":18
					},
					"indices":19,
					"material":3
				},
				{
					"attributes":{
						"POSITION":20,
						"NORMAL":21,
						"TEXCOORD_0":22,
						"TANGENT":23
					},
					"indices":24,
					"material":4
				}
			]
		}
	],
	"textures":[
		{
			"sampler":0,
			"source":0
		},
		{
			"sampler":0,
			"source":1
		},
		{
			"sampler":0,
			"source":2
		},
		{
			"sampler":0,
			"source":3
		},
		{
			"sampler":0,
			"source":4
		},
		{
			"sampler":0,
			"source":5
		},
		{
			"sampler":0,
			"source":6
		},
		{
			"sampler":0,
			"source":7
		},
		{
			"sampler":0,
			"source":8
		}
	],
	"images":[
		{
			"mimeType":"image/png",
			"name":"Poliigon_GrassPatchyGround_4585_Normal",
			"uri":"Textures/Poliigon_GrassPatchyGround_4585_Normal.png"
		},
		{
			"mimeType":"image/jpeg",
			"name":"Poliigon_GrassPatchyGround_4585_BaseColor",
			"uri":"Textures/Poliigon_GrassPatchyGround_4585_BaseColor.jpg"
		},
		{
			"mimeType":"image/png",
			"name":"Poliigon_GrassPatchyGround_4585_Metallic.jpg-Poliigon_GrassPatchyGround_4585_Roughness.jpg",
			"uri":"Textures/Poliigon_GrassPatchyGround_4585_Metallic_jpg-Poliigon_GrassPatchyGround_4585_Roughness_jpg.png"
		},
		{
			"mimeType":"image/jpeg",
			"name":"Stone",
			"uri":"Textures/Stone.jpg"
		},
		{
			"mimeType":"image/jpeg",
			"name":"CL_Skin_Media1_2NormalsMap",
			"uri":"Textures/CL_Skin_Media1_2NormalsMap.jpg"
		},
		{
			"mimeType":"image/jpeg",
			"name":"green-eyes.jpg",
			"uri":"Textures/green-eyes_jpg.jpg"
		},
		{
			"mimeType":"image/png",
			"name":"normal.png",
			"uri":"Textures/normal_png.png"
		},
		{
			"mimeType":"image/png",
			"name":"diffuso.tif",
			"uri":"Textures/diffuso_tif.png"
		},
		{
			"mimeType":"image/png",
			"name":"rough.tif",
			"uri":"Textures/rough_tif.png"
		}
	],
	"accessors":[
		{
			"bufferView":0,
			"componentType":5126,
			"count":32299,
			"max":[
				0.9957786798477173,
				0.05786801129579544,
				0.9896036982536316
			],
			"min":[
				-0.990084171295166,
				-0.0929514542222023,
				-0.9922374486923218
			],
			"type":"VEC3"
		},
		{
			"bufferView":1,
			"componentType":5126,
			"count":32299,
			"type":"VEC3"
		},
		{
			"bufferView":2,
			"componentType":5126,
			"count":32299,
			"type":"VEC2"
		},
		{
			"bufferView":3,
			"componentType":5126,
			"count":32299,
			"type":"VEC4"
		},
		{
			"bufferView":4,
			"componentType":5123,
			"count":55296,
			"type":"SCALAR"
		},
		{
			"bufferView":5,
			"componentType":5126,
			"count":14068,
			"max":[
				0.7173407673835754,
				0.20833297073841095,
				0.8075735569000244
			],
			"min":[
				-0.7365131378173828,
				-0.16121961176395416,
				-0.8880905508995056
			],
			"type":"VEC3"
		},
		{
			"bufferView":6,
			"componentType":5126,
			"count":14068,
			"type":"VEC3"
		},
		{
			"bufferView":7,
			"componentType":5126,
			"count":14068,
			"type":"VEC2"
		},
		{
			"bufferView":8,
			"componentType":5126,
			"count":14068,
			"type":"VEC4"
		},
		{
			"bufferView":9,
			"componentType":5123,
			"count":28404,
			"type":"SCALAR"
		},
		{
			"bufferView":10,
			"componentType":5126,
			"count":9011,
			"max":[
				0.4197129011154175,
				0.039118584245443344,
				0.7335010766983032
			],
			"min":[
				-0.4208860695362091,
				-0.05886426195502281,
				-0.7345468401908875
			],
			"type":"VEC3"
		},
		{
			"bufferView":11,
			"componentType":5126,
			"count":9011,
			"type":"VEC3"
		},
		{
			"bufferView":12,
			"componentType":5126,
			"count":9011,
			"type":"VEC2"
		},
		{
			"bufferView":13,
			"componentType":5126,
			"count":9011,
			"type":"VEC4"
		},
		{
			"bufferView":14,
			"componentType":5123,
			"count":18120,
			"type":"SCALAR"
		},
		{
			"bufferView":15,
			"componentType":5126,
			"count":264,
			"max":[
				0.5213576555252075,
				1.7314164638519287,
				-3.5592873096466064
			],
			"min":[
				-0.6187329888343811,
				1.6609082221984863,
				-3.721052408218384
			],
			"type":"VEC3"
		},
		{
			"bufferView":16,
			"componentType":5126,
			"count":264,
			"type":"VEC3"
		},
		{
			"bufferView":17,
			"componentType":5126,
			"count":264,
			"type":"VEC2"
		},
		{
			"bufferView":18,
			"componentType":5126,
			"count":264,
			"type":"VEC4"
		},
		{
			"bufferView":19,
			"componentType":5123,
			"count":396,
			"type":"SCALAR"
		},
		{
			"bufferView":20,
			"componentType":5126,
			"count":11389,
			"max":[
				5.950551986694336,
				1.8375840187072754,
				4.993207931518555
			],
			"min":[
				-5.846644401550293,
				-1.5026171207427979,
				-4.5218424797058105
			],
			"type":"VEC3"
		},
		{
			"bufferView":21,
			"componentType":5126,
			"count":11389,
			"type":"VEC3"
		},
		{
			"bufferView":22,
			"componentType":5126,
			"count":11389,
			"type":"VEC2"
		},
		{
			"bufferView":23,
			"componentType":5126,
			"count":11389,
			"type":"VEC4"
		},
		{
			"bufferView":24,
			"componentType":5123,
			"count":23700,
			"type":"SCALAR"
		}
	],
	"bufferViews":[
		{
			"buffer":0,
			"byteLength":387588,
			"byteOffset":0,
			"target":34962
		},
		{
			"buffer":0,
			"byteLength":387588,
			"byteOffset":387588,
			"target":34962
		},
		{
			"buffer":0,
			"byteLength":258392,
			"byteOffset":775176,
			"target":34962
		},
		{
			"buffer":0,
			"byteLength":516784,
			"byteOffset":1033568,
			"target":34962
		},
		{
			"buffer":0,
			"byteLength":110592,
			"byteOffset":1550352,
			"target":34963
		},
		{
			"buffer":0,
			"byteLength":168816,
			"byteOffset":1660944,
			"target":34962
		},
		{
			"buffer":0,
			"byteLength":168816,
			"byteOffset":1829760,
			"target":34962
		},
		{
			"buffer":0,
			"byteLength":112544,
			"byteOffset":1998576,
			"target":34962
		},
		{
			"buffer":0,
			"byteLength":225088,
			"byteOffset":2111120,
			"target":34962
		},
		{
			"buffer":0,
			"byteLength":56808,
			"byteOffset":2336208,
			"target":34963
		},
		{
			"buffer":0,
			"byteLength":108132,
			"byteOffset":2393016,
			"target":34962
		},
		{
			"buffer":0,
			"byteLength":108132,
			"byteOffset":2501148,
			"target":34962
		},
		{
			"buffer":0,
			"byteLength":72088,
			"byteOffset":2609280,
			"target":34962
		},
		{
			"buffer":0,
			"byteLength":144176,
			"byteOffset":2681368,
			"target":34962
		},
		{
			"buffer":0,
			"byteLength":36240,
			"byteOffset":2825544,
			"target":34963
		},
		{
			"buffer":0,
			"byteLength":3168,
			"byteOffset":2861784,
			"target":34962
		},
		{
			"buffer":0,
			"byteLength":3168,
			"byteOffset":2864952,
			"target":34962
		},
		{
			"buffer":0,
			"byteLength":2112,
			"byteOffset":2868120,
			"target":34962
		},
		{
			"buffer":0,
			"byteLength":4224,
			"byteOffset":2870232,
			"target":34962
		},
		{
			"buffer":0,
			"byteLength":792,
			"byteOffset":2874456,
			"target":34963
		},
		{
			"buffer":0,
			"byteLength":136668,
			"byteOffset":2875248,
			"target":34962
		},
		{
			"buffer":0,
			"byteLength":136668,
			"byteOffset":3011916,
			"target":34962
		},
		{
			"buffer":0,
			"byteLength":91112,
			"byteOffset":3148584,
			"target":34962
		},
		{
			"buffer":0,
			"byteLength":182224,
			"byteOffset":3239696,
			"target":34962
		},
		{
			"buffer":0,
			"byteLength":47400,
			"byteOffset":3421920,
			"target":34963
		}
	],
	"samplers":[
		{
			"magFilter":9729,
			"minFilter":9987
		}
	],
	"buffers":[
		{
			"byteLength":3469320,
			"uri":"plane.bin"
		}
	]
}
