{
	"asset":{
		"generator":"Khronos glTF Blender I/O v4.0.44",
		"version":"2.0"
	},
	"extensionsUsed":[
		"KHR_lights_punctual",
		"KHR_materials_specular",
		"KHR_materials_ior"
	],
	"extensionsRequired":[
		"KHR_lights_punctual"
	],
	"extensions":{
		"KHR_lights_punctual":{
			"lights":[
				{
					"color":[
						1,
						1,
						1
					],
					"intensity":32610847.839529358,
					"type":"point",
					"name":"Light"
				}
			]
		}
	},
	"scene":0,
	"scenes":[
		{
			"extras":{
				"pmc_sceneprops":{}
			},
			"name":"Scene",
			"nodes":[
				0,
				1,
				2,
				3,
				4,
				5,
				6,
				7
			]
		}
	],
	"nodes":[
		{
			"extensions":{
				"KHR_lights_punctual":{
					"light":0
				}
			},
			"name":"Light",
			"rotation":[
				-0.28416627645492554,
				0.7269423007965088,
				0.34203392267227173,
				0.5232754945755005
			],
			"translation":[
				61.618160247802734,
				217.23614501953125,
				-26.221698760986328
			]
		},
		{
			"camera":0,
			"name":"Camera",
			"rotation":[
				-0.05346575751900673,
				0.7025025486946106,
				0.0398101881146431,
				0.7085525989532471
			],
			"translation":[
				15.714970588684082,
				5.059192657470703,
				2.7565884590148926
			]
		},
		{
			"mesh":0,
			"name":"Plane",
			"scale":[
				110,
				100,
				120
			]
		},
		{
			"mesh":1,
			"name":" Cliff1",
			"rotation":[
				0.7071068286895752,
				0,
				0,
				0.7071068286895752
			],
			"scale":[
				1.0510557889938354,
				9.436314582824707,
				6.212950706481934
			],
			"translation":[
				110.10346984863281,
				-51.25391387939453,
				-8.620960235595703
			]
		},
		{
			"mesh":2,
			"name":"Cliff2",
			"rotation":[
				0.4996328055858612,
				0.5003669261932373,
				-0.5003668665885925,
				0.4996328055858612
			],
			"scale":[
				1.051055908203125,
				9.436314582824707,
				6.212950706481934
			],
			"translation":[
				-14.138620376586914,
				-51.190086364746094,
				-111.74026489257812
			]
		},
		{
			"mesh":3,
			"name":"Stone dude",
			"rotation":[
				0.5,
				0.5,
				-0.5,
				0.5
			],
			"scale":[
				0.8362428545951843,
				0.8362428545951843,
				0.8362427949905396
			],
			"translation":[
				-10,
				0,
				0
			]
		},
		{
			"mesh":4,
			"name":"Portal arch",
			"rotation":[
				0.4990865886211395,
				-0.5009117722511292,
				0.5009117126464844,
				0.4990866184234619
			],
			"scale":[
				5.470200538635254,
				5.470200538635254,
				5.47020149230957
			],
			"translation":[
				-20,
				-0.5662264227867126,
				-10
			]
		},
		{
			"mesh":5,
			"name":"Portal prehod",
			"rotation":[
				0.4990865886211395,
				-0.5009117722511292,
				0.5009117126464844,
				0.4990866184234619
			],
			"scale":[
				5.470200538635254,
				5.470200538635254,
				5.47020149230957
			],
			"translation":[
				-20,
				-0.5662264227867126,
				-10
			]
		}
	],
	"cameras":[
		{
			"name":"Camera",
			"perspective":{
				"aspectRatio":1.7777777777777777,
				"yfov":0.39959652046304894,
				"zfar":100,
				"znear":0.10000000149011612
			},
			"type":"perspective"
		}
	],
	"materials":[
		{
			"doubleSided":true,
			"name":"Material.008",
			"normalTexture":{
				"index":0
			},
			"pbrMetallicRoughness":{
				"baseColorTexture":{
					"index":1
				},
				"metallicRoughnessTexture":{
					"index":2
				}
			}
		},
		{
			"doubleSided":true,
			"name":"Material.002",
			"pbrMetallicRoughness":{
				"baseColorTexture":{
					"index":3
				},
				"metallicFactor":0,
				"roughnessFactor":0.6900347471237183
			}
		},
		{
			"doubleSided":true,
			"name":"EYES.002",
			"pbrMetallicRoughness":{
				"baseColorTexture":{
					"index":4
				},
				"metallicFactor":0,
				"roughnessFactor":0.4307900071144104
			}
		},
		{
			"doubleSided":true,
			"extensions":{
				"KHR_materials_specular":{
					"specularFactor":0.5181819796562195
				},
				"KHR_materials_ior":{
					"ior":1.4500000476837158
				}
			},
			"name":"STONE.002",
			"normalTexture":{
				"index":5,
				"scale":0
			},
			"pbrMetallicRoughness":{
				"baseColorTexture":{
					"index":6
				},
				"metallicFactor":0,
				"metallicRoughnessTexture":{
					"index":7
				}
			}
		},
		{
			"doubleSided":true,
			"name":"rock1",
			"pbrMetallicRoughness":{
				"baseColorTexture":{
					"index":8
				},
				"metallicFactor":0,
				"roughnessFactor":0.3999999761581421
			}
		},
		{
			"doubleSided":true,
			"name":"glass",
			"pbrMetallicRoughness":{
				"baseColorTexture":{
					"index":9
				},
				"metallicFactor":0,
				"roughnessFactor":0.3999999761581421
			}
		}
	],
	"meshes":[
		{
			"name":"Plane.002",
			"primitives":[
				{
					"attributes":{
						"POSITION":0,
						"NORMAL":1,
						"TEXCOORD_0":2,
						"TANGENT":3
					},
					"indices":4,
					"material":0
				}
			]
		},
		{
			"name":"Cliff1_LowPoly_Cube",
			"primitives":[
				{
					"attributes":{
						"POSITION":5,
						"NORMAL":6,
						"TEXCOORD_0":7,
						"TANGENT":8
					},
					"indices":9,
					"material":1
				}
			]
		},
		{
			"name":"Cliff1_LowPoly_Cube.001",
			"primitives":[
				{
					"attributes":{
						"POSITION":10,
						"NORMAL":11,
						"TEXCOORD_0":12,
						"TANGENT":13
					},
					"indices":14,
					"material":1
				}
			]
		},
		{
			"name":"eyes_Esfera.002",
			"primitives":[
				{
					"attributes":{
						"POSITION":15,
						"NORMAL":16,
						"TEXCOORD_0":17,
						"TANGENT":18
					},
					"indices":19,
					"material":2
				},
				{
					"attributes":{
						"POSITION":20,
						"NORMAL":21,
						"TEXCOORD_0":22,
						"TANGENT":23
					},
					"indices":24,
					"material":3
				}
			]
		},
		{
			"name":"Portal arch",
			"primitives":[
				{
					"attributes":{
						"POSITION":25,
						"NORMAL":26,
						"TEXCOORD_0":27,
						"TANGENT":28
					},
					"indices":29,
					"material":4
				}
			]
		},
		{
			"name":"Portal prehod",
			"primitives":[
				{
					"attributes":{
						"POSITION":30,
						"NORMAL":31,
						"TEXCOORD_0":32,
						"TANGENT":33
					},
					"indices":34,
					"material":5
				}
			]
		}
	],
	"textures":[
		{
			"sampler":0,
			"source":0
		},
		{
			"sampler":0,
			"source":1
		},
		{
			"sampler":0,
			"source":2
		},
		{
			"sampler":0,
			"source":3
		},
		{
			"sampler":0,
			"source":4
		},
		{
			"sampler":0,
			"source":5
		},
		{
			"sampler":0,
			"source":6
		},
		{
			"sampler":0,
			"source":7
		},
		{
			"sampler":0,
			"source":8
		},
		{
			"sampler":0,
			"source":9
		}
	],
	"images":[
		{
			"mimeType":"image/png",
			"name":"Poliigon_GrassPatchyGround_4585_Normal",
			"uri":"Textures/Poliigon_GrassPatchyGround_4585_Normal.png"
		},
		{
			"mimeType":"image/jpeg",
			"name":"Poliigon_GrassPatchyGround_4585_BaseColor",
			"uri":"Textures/Poliigon_GrassPatchyGround_4585_BaseColor.jpg"
		},
		{
			"mimeType":"image/png",
			"name":"Poliigon_GrassPatchyGround_4585_Metallic.jpg-Poliigon_GrassPatchyGround_4585_Roughness.jpg",
			"uri":"Textures/Poliigon_GrassPatchyGround_4585_Metallic_jpg-Poliigon_GrassPatchyGround_4585_Roughness_jpg.png"
		},
		{
			"mimeType":"image/jpeg",
			"name":"cliff2",
			"uri":"Textures/cliff2.jpg"
		},
		{
			"mimeType":"image/jpeg",
			"name":"green-eyes.jpg",
			"uri":"Textures/green-eyes_jpg.jpg"
		},
		{
			"mimeType":"image/png",
			"name":"normal.png",
			"uri":"Textures/normal_png.png"
		},
		{
			"mimeType":"image/png",
			"name":"diffuso.tif",
			"uri":"Textures/diffuso_tif.png"
		},
		{
			"mimeType":"image/png",
			"name":"rough.tif",
			"uri":"Textures/rough_tif.png"
		},
		{
			"mimeType":"image/jpeg",
			"name":"Stone",
			"uri":"Textures/Stone.jpg"
		},
		{
			"mimeType":"image/jpeg",
			"name":"CL_Skin_Media1_2NormalsMap",
			"uri":"Textures/CL_Skin_Media1_2NormalsMap.jpg"
		}
	],
	"accessors":[
		{
			"bufferView":0,
			"componentType":5126,
			"count":231,
			"max":[
				0.9944186806678772,
				0.005081752315163612,
				1.0027847290039062
			],
			"min":[
				-0.9999930262565613,
				-0.08017373085021973,
				-1.0029287338256836
			],
			"type":"VEC3"
		},
		{
			"bufferView":1,
			"componentType":5126,
			"count":231,
			"type":"VEC3"
		},
		{
			"bufferView":2,
			"componentType":5126,
			"count":231,
			"type":"VEC2"
		},
		{
			"bufferView":3,
			"componentType":5126,
			"count":231,
			"type":"VEC4"
		},
		{
			"bufferView":4,
			"componentType":5123,
			"count":1080,
			"type":"SCALAR"
		},
		{
			"bufferView":5,
			"componentType":5126,
			"count":373,
			"max":[
				2.7741997241973877,
				13.58689022064209,
				0.45136934518814087
			],
			"min":[
				-24.945186614990234,
				-11.637020111083984,
				-8.132913589477539
			],
			"type":"VEC3"
		},
		{
			"bufferView":6,
			"componentType":5126,
			"count":373,
			"type":"VEC3"
		},
		{
			"bufferView":7,
			"componentType":5126,
			"count":373,
			"type":"VEC2"
		},
		{
			"bufferView":8,
			"componentType":5126,
			"count":373,
			"type":"VEC4"
		},
		{
			"bufferView":9,
			"componentType":5123,
			"count":1704,
			"type":"SCALAR"
		},
		{
			"bufferView":10,
			"componentType":5126,
			"count":377,
			"max":[
				1.9123549461364746,
				13.301896095275879,
				0.7883643507957458
			],
			"min":[
				-19.682872772216797,
				-11.666116714477539,
				-8.132913589477539
			],
			"type":"VEC3"
		},
		{
			"bufferView":11,
			"componentType":5126,
			"count":377,
			"type":"VEC3"
		},
		{
			"bufferView":12,
			"componentType":5126,
			"count":377,
			"type":"VEC2"
		},
		{
			"bufferView":13,
			"componentType":5126,
			"count":377,
			"type":"VEC4"
		},
		{
			"bufferView":14,
			"componentType":5123,
			"count":1716,
			"type":"SCALAR"
		},
		{
			"bufferView":15,
			"componentType":5126,
			"count":66,
			"max":[
				0.6860302686691284,
				1.8087891340255737,
				-8.594398498535156
			],
			"min":[
				-0.6255949139595032,
				1.7049435377120972,
				-8.844796180725098
			],
			"type":"VEC3"
		},
		{
			"bufferView":16,
			"componentType":5126,
			"count":66,
			"type":"VEC3"
		},
		{
			"bufferView":17,
			"componentType":5126,
			"count":66,
			"type":"VEC2"
		},
		{
			"bufferView":18,
			"componentType":5126,
			"count":66,
			"type":"VEC4"
		},
		{
			"bufferView":19,
			"componentType":5123,
			"count":72,
			"type":"SCALAR"
		},
		{
			"bufferView":20,
			"componentType":5126,
			"count":932,
			"max":[
				6.098252296447754,
				1.9247890710830688,
				-0.05164308100938797
			],
			"min":[
				-5.810308456420898,
				-1.4902281761169434,
				-9.62910270690918
			],
			"type":"VEC3"
		},
		{
			"bufferView":21,
			"componentType":5126,
			"count":932,
			"type":"VEC3"
		},
		{
			"bufferView":22,
			"componentType":5126,
			"count":932,
			"type":"VEC2"
		},
		{
			"bufferView":23,
			"componentType":5126,
			"count":932,
			"type":"VEC4"
		},
		{
			"bufferView":24,
			"componentType":5123,
			"count":4230,
			"type":"SCALAR"
		},
		{
			"bufferView":25,
			"componentType":5126,
			"count":14164,
			"max":[
				0.7177292108535767,
				0.20789450407028198,
				-0.0008343218360096216
			],
			"min":[
				-0.7364661693572998,
				-0.15856485068798065,
				-1.6953920125961304
			],
			"type":"VEC3"
		},
		{
			"bufferView":26,
			"componentType":5126,
			"count":14164,
			"type":"VEC3"
		},
		{
			"bufferView":27,
			"componentType":5126,
			"count":14164,
			"type":"VEC2"
		},
		{
			"bufferView":28,
			"componentType":5126,
			"count":14164,
			"type":"VEC4"
		},
		{
			"bufferView":29,
			"componentType":5123,
			"count":28404,
			"type":"SCALAR"
		},
		{
			"bufferView":30,
			"componentType":5126,
			"count":9011,
			"max":[
				0.4197129011154175,
				0.04972796142101288,
				0.01883360929787159
			],
			"min":[
				-0.4208860695362091,
				-0.048254892230033875,
				-1.4492143392562866
			],
			"type":"VEC3"
		},
		{
			"bufferView":31,
			"componentType":5126,
			"count":9011,
			"type":"VEC3"
		},
		{
			"bufferView":32,
			"componentType":5126,
			"count":9011,
			"type":"VEC2"
		},
		{
			"bufferView":33,
			"componentType":5126,
			"count":9011,
			"type":"VEC4"
		},
		{
			"bufferView":34,
			"componentType":5123,
			"count":18108,
			"type":"SCALAR"
		}
	],
	"bufferViews":[
		{
			"buffer":0,
			"byteLength":2772,
			"byteOffset":0,
			"target":34962
		},
		{
			"buffer":0,
			"byteLength":2772,
			"byteOffset":2772,
			"target":34962
		},
		{
			"buffer":0,
			"byteLength":1848,
			"byteOffset":5544,
			"target":34962
		},
		{
			"buffer":0,
			"byteLength":3696,
			"byteOffset":7392,
			"target":34962
		},
		{
			"buffer":0,
			"byteLength":2160,
			"byteOffset":11088,
			"target":34963
		},
		{
			"buffer":0,
			"byteLength":4476,
			"byteOffset":13248,
			"target":34962
		},
		{
			"buffer":0,
			"byteLength":4476,
			"byteOffset":17724,
			"target":34962
		},
		{
			"buffer":0,
			"byteLength":2984,
			"byteOffset":22200,
			"target":34962
		},
		{
			"buffer":0,
			"byteLength":5968,
			"byteOffset":25184,
			"target":34962
		},
		{
			"buffer":0,
			"byteLength":3408,
			"byteOffset":31152,
			"target":34963
		},
		{
			"buffer":0,
			"byteLength":4524,
			"byteOffset":34560,
			"target":34962
		},
		{
			"buffer":0,
			"byteLength":4524,
			"byteOffset":39084,
			"target":34962
		},
		{
			"buffer":0,
			"byteLength":3016,
			"byteOffset":43608,
			"target":34962
		},
		{
			"buffer":0,
			"byteLength":6032,
			"byteOffset":46624,
			"target":34962
		},
		{
			"buffer":0,
			"byteLength":3432,
			"byteOffset":52656,
			"target":34963
		},
		{
			"buffer":0,
			"byteLength":792,
			"byteOffset":56088,
			"target":34962
		},
		{
			"buffer":0,
			"byteLength":792,
			"byteOffset":56880,
			"target":34962
		},
		{
			"buffer":0,
			"byteLength":528,
			"byteOffset":57672,
			"target":34962
		},
		{
			"buffer":0,
			"byteLength":1056,
			"byteOffset":58200,
			"target":34962
		},
		{
			"buffer":0,
			"byteLength":144,
			"byteOffset":59256,
			"target":34963
		},
		{
			"buffer":0,
			"byteLength":11184,
			"byteOffset":59400,
			"target":34962
		},
		{
			"buffer":0,
			"byteLength":11184,
			"byteOffset":70584,
			"target":34962
		},
		{
			"buffer":0,
			"byteLength":7456,
			"byteOffset":81768,
			"target":34962
		},
		{
			"buffer":0,
			"byteLength":14912,
			"byteOffset":89224,
			"target":34962
		},
		{
			"buffer":0,
			"byteLength":8460,
			"byteOffset":104136,
			"target":34963
		},
		{
			"buffer":0,
			"byteLength":169968,
			"byteOffset":112596,
			"target":34962
		},
		{
			"buffer":0,
			"byteLength":169968,
			"byteOffset":282564,
			"target":34962
		},
		{
			"buffer":0,
			"byteLength":113312,
			"byteOffset":452532,
			"target":34962
		},
		{
			"buffer":0,
			"byteLength":226624,
			"byteOffset":565844,
			"target":34962
		},
		{
			"buffer":0,
			"byteLength":56808,
			"byteOffset":792468,
			"target":34963
		},
		{
			"buffer":0,
			"byteLength":108132,
			"byteOffset":849276,
			"target":34962
		},
		{
			"buffer":0,
			"byteLength":108132,
			"byteOffset":957408,
			"target":34962
		},
		{
			"buffer":0,
			"byteLength":72088,
			"byteOffset":1065540,
			"target":34962
		},
		{
			"buffer":0,
			"byteLength":144176,
			"byteOffset":1137628,
			"target":34962
		},
		{
			"buffer":0,
			"byteLength":36216,
			"byteOffset":1281804,
			"target":34963
		}
	],
	"samplers":[
		{
			"magFilter":9729,
			"minFilter":9987
		}
	],
	"buffers":[
		{
			"byteLength":1318020,
			"uri":"plane.bin"
		}
	]
}
