{
	"asset":{
		"generator":"Khronos glTF Blender I/O v4.0.44",
		"version":"2.0"
	},
	"extensionsUsed":[
		"KHR_lights_punctual"
	],
	"extensionsRequired":[
		"KHR_lights_punctual"
	],
	"extensions":{
		"KHR_lights_punctual":{
			"lights":[
				{
					"color":[
						1,
						1,
						1
					],
					"intensity":543514.1306588226,
					"type":"point",
					"name":"Light"
				}
			]
		}
	},
	"scene":0,
	"scenes":[
		{
			"extras":{
				"pmc_sceneprops":{}
			},
			"name":"Scene",
			"nodes":[
				0,
				1,
				3,
				5,
				6,
				7,
				8,
				10,
				11
			]
		}
	],
	"nodes":[
		{
			"extensions":{
				"KHR_lights_punctual":{
					"light":0
				}
			},
			"name":"Light",
			"rotation":[
				-0.28416627645492554,
				0.7269423007965088,
				0.34203392267227173,
				0.5232754945755005
			],
			"translation":[
				19.146015167236328,
				8.45070743560791,
				-11.457496643066406
			]
		},
		{
			"camera":0,
			"name":"Camera",
			"rotation":[
				-0.060171592980623245,
				0.5517367720603943,
				0.028684256598353386,
				0.8313502073287964
			],
			"translation":[
				15.714970588684082,
				5.059192657470703,
				2.7565884590148926
			]
		},
		{
			"mesh":0,
			"name":"FoodGrapes001_Collection_Geo_LOD0.001",
			"translation":[
				0.023331940174102783,
				0.05011000111699104,
				-0.0029039978981018066
			]
		},
		{
			"children":[
				2
			],
			"name":"Grapes",
			"scale":[
				6.948526859283447,
				6.948526859283447,
				6.948526859283447
			],
			"translation":[
				3.474489212036133,
				-0.04507112503051758,
				3.8498969078063965
			]
		},
		{
			"mesh":1,
			"name":"FoodGrapes001_CollectionVine_Geo_LOD0.001",
			"translation":[
				0.023331940174102783,
				0.05011000111699104,
				-0.0029039978981018066
			]
		},
		{
			"children":[
				4
			],
			"name":"Grapes-stem",
			"scale":[
				6.948526859283447,
				6.948526859283447,
				6.948526859283447
			],
			"translation":[
				3.474489212036133,
				-0.04507112503051758,
				3.8498969078063965
			]
		},
		{
			"mesh":2,
			"name":"TreeStump",
			"rotation":[
				-0.6054089069366455,
				0.36534926295280457,
				0.3653494417667389,
				0.6054087281227112
			],
			"scale":[
				525.8864135742188,
				525.8864135742188,
				525.8864135742188
			],
			"translation":[
				-1.9152872562408447,
				-0.15989938378334045,
				-5.574788570404053
			]
		},
		{
			"mesh":3,
			"name":"Plane",
			"scale":[
				168.69529724121094,
				168.69529724121094,
				168.69529724121094
			]
		},
		{
			"mesh":4,
			"name":"PlantOrchid",
			"rotation":[
				0.032235030084848404,
				-0.30693310499191284,
				-0.09934990853071213,
				0.9459823369979858
			],
			"scale":[
				5.909602642059326,
				5.909600734710693,
				5.909601211547852
			],
			"translation":[
				-0.07168681919574738,
				-0.4388740360736847,
				0.17567948997020721
			]
		},
		{
			"mesh":5,
			"name":"PlantMonstera001.001"
		},
		{
			"children":[
				9
			],
			"name":"PlantMonstera",
			"scale":[
				8.900415420532227,
				8.900415420532227,
				8.900415420532227
			],
			"translation":[
				8.184542655944824,
				-1.4728885889053345,
				8.211658477783203
			]
		},
		{
			"mesh":6,
			"name":"BigRock",
			"scale":[
				3.1519644260406494,
				3.1519644260406494,
				3.1519644260406494
			],
			"translation":[
				24.704925537109375,
				0.13017749786376953,
				-8.529680252075195
			]
		}
	],
	"cameras":[
		{
			"name":"Camera",
			"perspective":{
				"aspectRatio":1.7777777777777777,
				"yfov":0.39959652046304894,
				"zfar":100,
				"znear":0.10000000149011612
			},
			"type":"perspective"
		}
	],
	"materials":[
		{
			"doubleSided":true,
			"name":"FoodGrapes001_Grapes_1K.001",
			"pbrMetallicRoughness":{
				"baseColorTexture":{
					"index":0
				},
				"metallicRoughnessTexture":{
					"index":1
				}
			}
		},
		{
			"doubleSided":true,
			"name":"FoodGrapes001_Vine001_1K.001",
			"pbrMetallicRoughness":{
				"baseColorTexture":{
					"index":2
				}
			}
		},
		{
			"doubleSided":true,
			"extras":{
				"pmc_matprops":{
					"workflow":"METALNESS",
					"setname":"TreeStump024_4K",
					"status":"{}",
					"size":"4K",
					"use_ao":1,
					"use_disp":1,
					"use_bump":1,
					"use_sixteenbit":1,
					"setpath":"C:/Users/Administrator/Poliigon/Process/Temp/TreeStump024/Blender/TreeStump024_4K"
				}
			},
			"name":"TreeStump024_4K.001",
			"normalTexture":{
				"index":3
			},
			"pbrMetallicRoughness":{
				"baseColorTexture":{
					"index":4
				},
				"metallicRoughnessTexture":{
					"index":5
				}
			}
		},
		{
			"doubleSided":true,
			"name":"Material.008",
			"normalTexture":{
				"index":6
			},
			"pbrMetallicRoughness":{
				"baseColorTexture":{
					"index":7
				},
				"metallicRoughnessTexture":{
					"index":8
				}
			}
		},
		{
			"doubleSided":true,
			"name":"PlantOrchid001_4K.002",
			"normalTexture":{
				"index":9
			},
			"pbrMetallicRoughness":{
				"baseColorTexture":{
					"index":10
				},
				"metallicRoughnessTexture":{
					"index":11
				}
			}
		},
		{
			"doubleSided":true,
			"name":"PlantMonstera001_4K.001",
			"normalTexture":{
				"index":12
			},
			"pbrMetallicRoughness":{
				"baseColorTexture":{
					"index":13
				},
				"metallicRoughnessTexture":{
					"index":14
				}
			}
		},
		{
			"doubleSided":true,
			"name":"RockBoulderLarge049_4K.001",
			"normalTexture":{
				"index":15
			},
			"pbrMetallicRoughness":{
				"baseColorTexture":{
					"index":16
				},
				"metallicRoughnessTexture":{
					"index":17
				}
			}
		}
	],
	"meshes":[
		{
			"name":"FoodGrapes001_Collection_Geo_LOD0.001",
			"primitives":[
				{
					"attributes":{
						"POSITION":0,
						"NORMAL":1,
						"TEXCOORD_0":2,
						"TANGENT":3
					},
					"indices":4,
					"material":0
				}
			]
		},
		{
			"name":"FoodGrapes001_CollectionVine_Geo_LOD0.001",
			"primitives":[
				{
					"attributes":{
						"POSITION":5,
						"NORMAL":6,
						"TEXCOORD_0":7,
						"TANGENT":8
					},
					"indices":9,
					"material":1
				}
			]
		},
		{
			"name":"TreeStump024_LOD1.002",
			"primitives":[
				{
					"attributes":{
						"POSITION":10,
						"NORMAL":11,
						"TEXCOORD_0":12,
						"TANGENT":13
					},
					"indices":14,
					"material":2
				}
			]
		},
		{
			"name":"Plane.002",
			"primitives":[
				{
					"attributes":{
						"POSITION":15,
						"NORMAL":16,
						"TEXCOORD_0":17,
						"TANGENT":18
					},
					"indices":19,
					"material":3
				}
			]
		},
		{
			"name":"PlantOrchid001.001",
			"primitives":[
				{
					"attributes":{
						"COLOR_0":20,
						"POSITION":21,
						"NORMAL":22,
						"TEXCOORD_0":23,
						"TANGENT":24
					},
					"indices":25,
					"material":4
				}
			]
		},
		{
			"name":"Plane.003",
			"primitives":[
				{
					"attributes":{
						"POSITION":26,
						"NORMAL":27,
						"TEXCOORD_0":28,
						"TANGENT":29
					},
					"indices":30,
					"material":5
				}
			]
		},
		{
			"name":"RockBoulderLarge049_LOD1.001",
			"primitives":[
				{
					"attributes":{
						"POSITION":31,
						"NORMAL":32,
						"TEXCOORD_0":33,
						"TANGENT":34
					},
					"indices":35,
					"material":6
				}
			]
		}
	],
	"textures":[
		{
			"sampler":0,
			"source":0
		},
		{
			"sampler":0,
			"source":1
		},
		{
			"sampler":0,
			"source":2
		},
		{
			"sampler":0,
			"source":3
		},
		{
			"sampler":0,
			"source":4
		},
		{
			"sampler":0,
			"source":5
		},
		{
			"sampler":0,
			"source":6
		},
		{
			"sampler":0,
			"source":7
		},
		{
			"sampler":0,
			"source":8
		},
		{
			"sampler":0,
			"source":9
		},
		{
			"sampler":0,
			"source":10
		},
		{
			"sampler":0,
			"source":11
		},
		{
			"sampler":0,
			"source":12
		},
		{
			"sampler":0,
			"source":13
		},
		{
			"sampler":0,
			"source":14
		},
		{
			"sampler":0,
			"source":15
		},
		{
			"sampler":0,
			"source":16
		},
		{
			"sampler":0,
			"source":17
		}
	],
	"images":[
		{
			"mimeType":"image/png",
			"name":"FoodGrapes001_Grapes_COL_1K_METALNESS",
			"uri":"FoodGrapes001_Grapes_COL_1K_METALNESS.png"
		},
		{
			"mimeType":"image/png",
			"name":"FoodGrapes001_METALNESS_1K_METALNESS-FoodGrapes001_Grapes_ROUGHNESS_1K_METALNESS",
			"uri":"FoodGrapes001_METALNESS_1K_METALNESS-FoodGrapes001_Grapes_ROUGHNESS_1K_METALNESS.png"
		},
		{
			"mimeType":"image/png",
			"name":"FoodGrapes001_Vine001_COL_1K_METALNESS",
			"uri":"FoodGrapes001_Vine001_COL_1K_METALNESS.png"
		},
		{
			"mimeType":"image/png",
			"name":"TreeStump024_NRM_4K_METALNESS",
			"uri":"TreeStump024_NRM_4K_METALNESS.png"
		},
		{
			"mimeType":"image/png",
			"name":"TreeStump024_COL_4K_METALNESS",
			"uri":"TreeStump024_COL_4K_METALNESS.png"
		},
		{
			"mimeType":"image/png",
			"name":"TreeStump024_METALNESS_4K_METALNESS.png-TreeStump024_ROUGHNESS_4K_METALNESS.png",
			"uri":"TreeStump024_METALNESS_4K_METALNESS_png-TreeStump024_ROUGHNESS_4K_METALNESS_png.png"
		},
		{
			"mimeType":"image/png",
			"name":"Poliigon_GrassPatchyGround_4585_Normal",
			"uri":"Poliigon_GrassPatchyGround_4585_Normal.png"
		},
		{
			"mimeType":"image/jpeg",
			"name":"Poliigon_GrassPatchyGround_4585_BaseColor",
			"uri":"Poliigon_GrassPatchyGround_4585_BaseColor.jpg"
		},
		{
			"mimeType":"image/png",
			"name":"Poliigon_GrassPatchyGround_4585_Metallic.jpg-Poliigon_GrassPatchyGround_4585_Roughness.jpg",
			"uri":"Poliigon_GrassPatchyGround_4585_Metallic_jpg-Poliigon_GrassPatchyGround_4585_Roughness_jpg.png"
		},
		{
			"mimeType":"image/jpeg",
			"name":"PlantOrchid001_NRM_4K_METALNESS",
			"uri":"PlantOrchid001_NRM_4K_METALNESS.jpg"
		},
		{
			"mimeType":"image/jpeg",
			"name":"PlantOrchid001_COL_4K_METALNESS",
			"uri":"PlantOrchid001_COL_4K_METALNESS.jpg"
		},
		{
			"mimeType":"image/png",
			"name":"PlantOrchid001_METALNESS_4K_METALNESS-PlantOrchid001_ROUGHNESS_4K_METALNESS",
			"uri":"PlantOrchid001_METALNESS_4K_METALNESS-PlantOrchid001_ROUGHNESS_4K_METALNESS.png"
		},
		{
			"mimeType":"image/jpeg",
			"name":"PlantMonstera001_NRM_4K_METALNESS",
			"uri":"PlantMonstera001_NRM_4K_METALNESS.jpg"
		},
		{
			"mimeType":"image/jpeg",
			"name":"PlantMonstera001_COL_4K_METALNESS",
			"uri":"PlantMonstera001_COL_4K_METALNESS.jpg"
		},
		{
			"mimeType":"image/png",
			"name":"PlantMonstera001_SSS_4K_METALNESS-PlantMonstera001_ROUGHNESS_4K_METALNESS",
			"uri":"PlantMonstera001_SSS_4K_METALNESS-PlantMonstera001_ROUGHNESS_4K_METALNESS.png"
		},
		{
			"mimeType":"image/jpeg",
			"name":"RockBoulderLarge049_BUMP_4K_METALNESS",
			"uri":"RockBoulderLarge049_BUMP_4K_METALNESS.jpg"
		},
		{
			"mimeType":"image/jpeg",
			"name":"RockBoulderLarge049_COL_4K_METALNESS",
			"uri":"RockBoulderLarge049_COL_4K_METALNESS.jpg"
		},
		{
			"mimeType":"image/png",
			"name":"RockBoulderLarge049_METALNESS_4K_METALNESS.jpg-RockBoulderLarge049_ROUGHNESS_4K_METALNESS.jpg",
			"uri":"RockBoulderLarge049_METALNESS_4K_METALNESS_jpg-RockBoulderLarge049_ROUGHNESS_4K_METALNESS_jpg.png"
		}
	],
	"accessors":[
		{
			"bufferView":0,
			"componentType":5126,
			"count":22560,
			"max":[
				0.01651199907064438,
				0.08381500095129013,
				0.09106399118900299
			],
			"min":[
				-0.11943699419498444,
				-0.0499739944934845,
				-0.0863879919052124
			],
			"type":"VEC3"
		},
		{
			"bufferView":1,
			"componentType":5126,
			"count":22560,
			"type":"VEC3"
		},
		{
			"bufferView":2,
			"componentType":5126,
			"count":22560,
			"type":"VEC2"
		},
		{
			"bufferView":3,
			"componentType":5126,
			"count":22560,
			"type":"VEC4"
		},
		{
			"bufferView":4,
			"componentType":5123,
			"count":109482,
			"type":"SCALAR"
		},
		{
			"bufferView":5,
			"componentType":5126,
			"count":10192,
			"max":[
				0.06738200038671494,
				0.06416499614715576,
				0.07023300230503082
			],
			"min":[
				-0.09892299771308899,
				-0.049421004951000214,
				-0.06218499690294266
			],
			"type":"VEC3"
		},
		{
			"bufferView":6,
			"componentType":5126,
			"count":10192,
			"type":"VEC3"
		},
		{
			"bufferView":7,
			"componentType":5126,
			"count":10192,
			"type":"VEC2"
		},
		{
			"bufferView":8,
			"componentType":5126,
			"count":10192,
			"type":"VEC4"
		},
		{
			"bufferView":9,
			"componentType":5123,
			"count":48978,
			"type":"SCALAR"
		},
		{
			"bufferView":10,
			"componentType":5126,
			"count":30947,
			"max":[
				0.0026538828387856483,
				0.002649849047884345,
				0.005332319997251034
			],
			"min":[
				-0.0028689152095466852,
				-0.002681170357391238,
				-0.00012607067765202373
			],
			"type":"VEC3"
		},
		{
			"bufferView":11,
			"componentType":5126,
			"count":30947,
			"type":"VEC3"
		},
		{
			"bufferView":12,
			"componentType":5126,
			"count":30947,
			"type":"VEC2"
		},
		{
			"bufferView":13,
			"componentType":5126,
			"count":30947,
			"type":"VEC4"
		},
		{
			"bufferView":14,
			"componentType":5123,
			"count":150000,
			"type":"SCALAR"
		},
		{
			"bufferView":15,
			"componentType":5126,
			"count":4,
			"max":[
				1,
				0,
				1
			],
			"min":[
				-1,
				0,
				-1
			],
			"type":"VEC3"
		},
		{
			"bufferView":16,
			"componentType":5126,
			"count":4,
			"type":"VEC3"
		},
		{
			"bufferView":17,
			"componentType":5126,
			"count":4,
			"type":"VEC2"
		},
		{
			"bufferView":18,
			"componentType":5126,
			"count":4,
			"type":"VEC4"
		},
		{
			"bufferView":19,
			"componentType":5123,
			"count":6,
			"type":"SCALAR"
		},
		{
			"bufferView":20,
			"componentType":5123,
			"count":105473,
			"normalized":true,
			"type":"VEC4"
		},
		{
			"bufferView":21,
			"componentType":5126,
			"count":105473,
			"max":[
				0.09159579873085022,
				0.4267856478691101,
				0.03558005392551422
			],
			"min":[
				-0.15754005312919617,
				0.07242346554994583,
				-0.09215002506971359
			],
			"type":"VEC3"
		},
		{
			"bufferView":22,
			"componentType":5126,
			"count":105473,
			"type":"VEC3"
		},
		{
			"bufferView":23,
			"componentType":5126,
			"count":105473,
			"type":"VEC2"
		},
		{
			"bufferView":24,
			"componentType":5126,
			"count":105473,
			"type":"VEC4"
		},
		{
			"bufferView":25,
			"componentType":5125,
			"count":582621,
			"type":"SCALAR"
		},
		{
			"bufferView":26,
			"componentType":5126,
			"count":74714,
			"max":[
				0.2257675677537918,
				0.5650392770767212,
				0.22345364093780518
			],
			"min":[
				-0.21638040244579315,
				0.13294002413749695,
				-0.24734875559806824
			],
			"type":"VEC3"
		},
		{
			"bufferView":27,
			"componentType":5126,
			"count":74714,
			"type":"VEC3"
		},
		{
			"bufferView":28,
			"componentType":5126,
			"count":74714,
			"type":"VEC2"
		},
		{
			"bufferView":29,
			"componentType":5126,
			"count":74714,
			"type":"VEC4"
		},
		{
			"bufferView":30,
			"componentType":5125,
			"count":409968,
			"type":"SCALAR"
		},
		{
			"bufferView":31,
			"componentType":5126,
			"count":26795,
			"max":[
				0.7839862108230591,
				0.7324029207229614,
				0.5368508100509644
			],
			"min":[
				-0.8586640954017639,
				-0.014233535155653954,
				-0.5374143123626709
			],
			"type":"VEC3"
		},
		{
			"bufferView":32,
			"componentType":5126,
			"count":26795,
			"type":"VEC3"
		},
		{
			"bufferView":33,
			"componentType":5126,
			"count":26795,
			"type":"VEC2"
		},
		{
			"bufferView":34,
			"componentType":5126,
			"count":26795,
			"type":"VEC4"
		},
		{
			"bufferView":35,
			"componentType":5123,
			"count":151089,
			"type":"SCALAR"
		}
	],
	"bufferViews":[
		{
			"buffer":0,
			"byteLength":270720,
			"byteOffset":0,
			"target":34962
		},
		{
			"buffer":0,
			"byteLength":270720,
			"byteOffset":270720,
			"target":34962
		},
		{
			"buffer":0,
			"byteLength":180480,
			"byteOffset":541440,
			"target":34962
		},
		{
			"buffer":0,
			"byteLength":360960,
			"byteOffset":721920,
			"target":34962
		},
		{
			"buffer":0,
			"byteLength":218964,
			"byteOffset":1082880,
			"target":34963
		},
		{
			"buffer":0,
			"byteLength":122304,
			"byteOffset":1301844,
			"target":34962
		},
		{
			"buffer":0,
			"byteLength":122304,
			"byteOffset":1424148,
			"target":34962
		},
		{
			"buffer":0,
			"byteLength":81536,
			"byteOffset":1546452,
			"target":34962
		},
		{
			"buffer":0,
			"byteLength":163072,
			"byteOffset":1627988,
			"target":34962
		},
		{
			"buffer":0,
			"byteLength":97956,
			"byteOffset":1791060,
			"target":34963
		},
		{
			"buffer":0,
			"byteLength":371364,
			"byteOffset":1889016,
			"target":34962
		},
		{
			"buffer":0,
			"byteLength":371364,
			"byteOffset":2260380,
			"target":34962
		},
		{
			"buffer":0,
			"byteLength":247576,
			"byteOffset":2631744,
			"target":34962
		},
		{
			"buffer":0,
			"byteLength":495152,
			"byteOffset":2879320,
			"target":34962
		},
		{
			"buffer":0,
			"byteLength":300000,
			"byteOffset":3374472,
			"target":34963
		},
		{
			"buffer":0,
			"byteLength":48,
			"byteOffset":3674472,
			"target":34962
		},
		{
			"buffer":0,
			"byteLength":48,
			"byteOffset":3674520,
			"target":34962
		},
		{
			"buffer":0,
			"byteLength":32,
			"byteOffset":3674568,
			"target":34962
		},
		{
			"buffer":0,
			"byteLength":64,
			"byteOffset":3674600,
			"target":34962
		},
		{
			"buffer":0,
			"byteLength":12,
			"byteOffset":3674664,
			"target":34963
		},
		{
			"buffer":0,
			"byteLength":843784,
			"byteOffset":3674676,
			"target":34962
		},
		{
			"buffer":0,
			"byteLength":1265676,
			"byteOffset":4518460,
			"target":34962
		},
		{
			"buffer":0,
			"byteLength":1265676,
			"byteOffset":5784136,
			"target":34962
		},
		{
			"buffer":0,
			"byteLength":843784,
			"byteOffset":7049812,
			"target":34962
		},
		{
			"buffer":0,
			"byteLength":1687568,
			"byteOffset":7893596,
			"target":34962
		},
		{
			"buffer":0,
			"byteLength":2330484,
			"byteOffset":9581164,
			"target":34963
		},
		{
			"buffer":0,
			"byteLength":896568,
			"byteOffset":11911648,
			"target":34962
		},
		{
			"buffer":0,
			"byteLength":896568,
			"byteOffset":12808216,
			"target":34962
		},
		{
			"buffer":0,
			"byteLength":597712,
			"byteOffset":13704784,
			"target":34962
		},
		{
			"buffer":0,
			"byteLength":1195424,
			"byteOffset":14302496,
			"target":34962
		},
		{
			"buffer":0,
			"byteLength":1639872,
			"byteOffset":15497920,
			"target":34963
		},
		{
			"buffer":0,
			"byteLength":321540,
			"byteOffset":17137792,
			"target":34962
		},
		{
			"buffer":0,
			"byteLength":321540,
			"byteOffset":17459332,
			"target":34962
		},
		{
			"buffer":0,
			"byteLength":214360,
			"byteOffset":17780872,
			"target":34962
		},
		{
			"buffer":0,
			"byteLength":428720,
			"byteOffset":17995232,
			"target":34962
		},
		{
			"buffer":0,
			"byteLength":302178,
			"byteOffset":18423952,
			"target":34963
		}
	],
	"samplers":[
		{
			"magFilter":9729,
			"minFilter":9987
		}
	],
	"buffers":[
		{
			"byteLength":18726132,
			"uri":"plane.bin"
		}
	]
}
